<svg width="64" height="64" viewBox="0 0 64 64" fill="none" xmlns="http://www.w3.org/2000/svg">
<rect width="64" height="64" fill="white"/>
<path d="M6.08594 46V17.3672H15.9492C18.1758 17.3672 19.875 17.5039 21.0469 17.7773C22.6875 18.1549 24.0872 18.8385 25.2461 19.8281C26.7565 21.1042 27.8828 22.7383 28.625 24.7305C29.3802 26.7096 29.7578 28.9753 29.7578 31.5273C29.7578 33.7018 29.5039 35.6289 28.9961 37.3086C28.4883 38.9883 27.8372 40.3815 27.043 41.4883C26.2487 42.582 25.3763 43.4479 24.4258 44.0859C23.4883 44.7109 22.349 45.1862 21.0078 45.5117C19.6797 45.8372 18.1497 46 16.418 46H6.08594ZM9.875 42.6211H15.9883C17.8763 42.6211 19.3542 42.4453 20.4219 42.0938C21.5026 41.7422 22.362 41.2474 23 40.6094C23.8984 39.7109 24.5951 38.5065 25.0898 36.9961C25.5977 35.4727 25.8516 33.6302 25.8516 31.4688C25.8516 28.474 25.3568 26.1758 24.3672 24.5742C23.3906 22.9596 22.1992 21.8789 20.793 21.332C19.7773 20.9414 18.1432 20.7461 15.8906 20.7461H9.875V42.6211ZM35.1094 46V17.3672H38.8984V29.125H53.7812V17.3672H57.5703V46H53.7812V32.5039H38.8984V46H35.1094Z" fill="black"/>
</svg>
