<?xml version="1.0" encoding="UTF-8"?>
<svg id="Ebene_1" data-name="Ebene 1" xmlns="http://www.w3.org/2000/svg" xmlns:xlink="http://www.w3.org/1999/xlink" viewBox="0 0 284.1 50.55">
  <defs>
    <style>
      .cls-1, .cls-2, .cls-3, .cls-4, .cls-5 {
        stroke-width: 0px;
      }

      .cls-2 {
        fill: #88bf20;
      }

      .cls-3 {
        fill: url(#radial-gradient-2);
      }

      .cls-4 {
        fill: url(#radial-gradient);
      }

      .cls-5 {
        fill: #ffb400;
      }
    </style>
    <radialGradient id="radial-gradient" cx="22.2" cy="27.62" fx="22.2" fy="27.62" r="23.11" gradientUnits="userSpaceOnUse">
      <stop offset=".08" stop-color="#c8de8d"/>
      <stop offset=".92" stop-color="#88bf20"/>
    </radialGradient>
    <radialGradient id="radial-gradient-2" cx="270.28" cy="377.18" fx="270.28" fy="377.18" r="23.11" gradientTransform="translate(316.11 405.3) rotate(-180)" gradientUnits="userSpaceOnUse">
      <stop offset="0" stop-color="#ba5b17"/>
      <stop offset=".98" stop-color="#f9b211"/>
    </radialGradient>
  </defs>
  <circle class="cls-5" cx="22.68" cy="27.87" r="22.68"/>
  <path class="cls-2" d="m45.35,5.19c-4.13,0-8,1.11-11.34,3.04,6.78,3.92,11.34,11.24,11.34,19.64h-22.68c0,12.52,10.15,22.68,22.68,22.68s22.68-10.15,22.68-22.68S57.88,5.19,45.35,5.19Z"/>
  <path class="cls-4" d="m45.35,27.87h-22.68c0,8.39,4.56,15.71,11.34,19.64,6.78-3.92,11.34-11.24,11.34-19.64h0Z"/>
  <path class="cls-3" d="m22.68,27.87h22.68c0-8.39-4.56-15.71-11.34-19.64-6.78,3.92-11.34,11.24-11.34,19.64h0Z"/>
  <path class="cls-5" d="m117.14,5.19c-13.24-.05-22.3,9.13-22.35,22.59-.05,13.55,8.94,22.71,22.61,22.77,7.45.03,13.69-2.93,17.65-7.79.53-.72.8-1.53.8-2.35,0-2.17-1.48-3.71-3.67-3.72-1.23,0-2.19.53-2.99,1.43-2.55,3.06-6.59,5.12-11.77,5.1-7.98-.03-13.39-4.93-14.59-12.34l30.77.12c3.07.01,4.92-1.79,4.93-4.95v-.18c.05-11.56-9.03-20.63-21.39-20.68Zm-14.1,18.64c1.52-6.86,6.8-11.36,14.07-11.33,7.28.03,12.52,4.57,13.98,11.44l-28.05-.11Z"/>
  <path class="cls-1" d="m207,5.79h-.02c-1.18,0-2.17.39-2.86,1.12-.69.74-1.05,1.76-1.05,3.04v1.45c-3.55-4-8.87-6.18-15.28-6.21h-.1c-12.67,0-21.21,9.07-21.26,22.59-.05,13.56,8.46,22.71,21.19,22.76h.11c6.36,0,11.66-2.14,15.21-6.09v1.45c-.01,1.23.34,2.27,1.02,3.01.7.77,1.69,1.18,2.88,1.18h.02c2.35,0,3.82-1.59,3.83-4.16l.14-35.95c0-1.28-.32-2.3-.97-3.03-.67-.75-1.65-1.15-2.84-1.16Zm-18.36,37.44h-.07c-8.6-.03-14.35-6.23-14.31-15.42.04-9.16,5.81-15.31,14.37-15.31h.07c8.46.03,14.35,6.37,14.31,15.42-.02,4.51-1.42,8.36-4.07,11.13-2.6,2.73-6.16,4.17-10.29,4.17Z"/>
  <path class="cls-1" d="m161.83,50.55c-8.99,0-16.31-7.32-16.31-16.31V3.9c0-2.15,1.75-3.9,3.9-3.9s3.9,1.75,3.9,3.9v30.34c0,4.69,3.82,8.51,8.51,8.51,2.15,0,3.9,1.75,3.9,3.9s-1.75,3.9-3.9,3.9Z"/>
  <path class="cls-1" d="m236.58,50.55c5.91,0,11.17-2.81,14.54-7.15,3.38,4.34,8.63,7.15,14.54,7.15,10.16,0,18.43-8.27,18.43-18.43V9.68c0-2.15-1.74-3.89-3.89-3.89s-3.89,1.74-3.89,3.89v22.43c0,5.87-4.78,10.65-10.65,10.65s-10.65-4.78-10.65-10.65V9.68c0-2.15-1.74-3.89-3.89-3.89s-3.89,1.74-3.89,3.89v22.43c0,5.87-4.78,10.65-10.65,10.65s-10.65-4.78-10.65-10.65V9.68c0-2.15-1.74-3.89-3.89-3.89s-3.89,1.74-3.89,3.89v22.43c0,10.16,8.27,18.43,18.43,18.43Z"/>
</svg>